<svg width="5" height="10" viewBox="0 0 5 10" fill="none" xmlns="http://www.w3.org/2000/svg">
<path d="M4.676 0.199999H5.676V-0.800001H4.676V0.199999ZM4.676 10V11H5.676V10H4.676ZM1.904 10H0.904V11H1.904V10ZM1.904 2.342H2.904V1.342H1.904V2.342ZM0.084 2.342H-0.916V3.342H0.084V2.342ZM0.084 0.199999V-0.800001H-0.916V0.199999H0.084ZM3.676 0.199999V10H5.676V0.199999H3.676ZM4.676 9H1.904V11H4.676V9ZM2.904 10V2.342H0.904V10H2.904ZM1.904 1.342H0.084V3.342H1.904V1.342ZM1.084 2.342V0.199999H-0.916V2.342H1.084ZM0.084 1.2H4.676V-0.800001H0.084V1.2Z" fill="white"/>
</svg>
