<svg width="56" height="56" viewBox="0 0 56 56" fill="none" xmlns="http://www.w3.org/2000/svg">
<circle cx="28" cy="28" r="28" fill="#52A3FF"/>
<path d="M32 37V35C32 33.9391 31.5786 32.9217 30.8284 32.1716C30.0783 31.4214 29.0609 31 28 31H21C19.9391 31 18.9217 31.4214 18.1716 32.1716C17.4214 32.9217 17 33.9391 17 35V37" stroke="white" stroke-width="2" stroke-linecap="round" stroke-linejoin="round"/>
<path d="M24.5 27C26.7091 27 28.5 25.2091 28.5 23C28.5 20.7909 26.7091 19 24.5 19C22.2909 19 20.5 20.7909 20.5 23C20.5 25.2091 22.2909 27 24.5 27Z" stroke="white" stroke-width="2" stroke-linecap="round" stroke-linejoin="round"/>
<path d="M38.0783 20.3446C37.9293 20.1956 37.7524 20.0774 37.5578 19.9967C37.3631 19.916 37.1544 19.8745 36.9437 19.8745C36.733 19.8745 36.5243 19.916 36.3296 19.9967C36.135 20.0774 35.9581 20.1956 35.8091 20.3446L35.5 20.6538L35.1908 20.3446C34.8899 20.0437 34.4818 19.8747 34.0562 19.8747C33.6307 19.8747 33.2225 20.0437 32.9216 20.3446C32.6207 20.6455 32.4517 21.0537 32.4517 21.4792C32.4517 21.9048 32.6207 22.3129 32.9216 22.6138L33.2308 22.923L35.5 25.1921L37.7691 22.923L38.0783 22.6138C38.2273 22.4648 38.3456 22.2879 38.4262 22.0933C38.5069 21.8986 38.5484 21.6899 38.5484 21.4792C38.5484 21.2685 38.5069 21.0598 38.4262 20.8651C38.3456 20.6705 38.2273 20.4936 38.0783 20.3446Z" fill="white" stroke="white" stroke-linecap="round" stroke-linejoin="round"/>
</svg>
