<svg width="142" height="30" viewBox="0 0 142 30" fill="none" xmlns="http://www.w3.org/2000/svg">
<path d="M40.0458 0.0485218L37.6137 4.24567L35.1573 0.0485218H34.6644V5.70942H35.2381V1.20496L37.4602 4.98968H37.743L39.965 1.1807V5.70942H40.5387V0.0485218H40.0458Z" fill="#FF508A"/>
<path d="M46.6075 5.70942H47.2378L44.6521 0.0485218H44.0623L41.4766 5.70942H42.0988L42.7775 4.19715H45.9288L46.6075 5.70942ZM42.9957 3.71193L44.3531 0.671221L45.7106 3.71193H42.9957Z" fill="#FF508A"/>
<path d="M49.7329 5.75794C51.1792 5.75794 51.8418 5.04629 51.8418 4.21332C51.8418 2.15114 48.3593 3.08923 48.3593 1.53653C48.3593 0.970439 48.8198 0.509481 49.8541 0.509481C50.3551 0.509481 50.9207 0.663134 51.4055 0.978526L51.6075 0.501394C51.155 0.186001 50.4924 0 49.8541 0C48.4158 0 47.7694 0.719742 47.7694 1.5527C47.7694 3.64723 51.2519 2.69297 51.2519 4.24567C51.2519 4.80368 50.7914 5.24846 49.7329 5.24846C48.9895 5.24846 48.2704 4.95733 47.8664 4.56107L47.632 5.02202C48.0522 5.45872 48.8845 5.75794 49.7329 5.75794Z" fill="#FF508A"/>
<path d="M54.1646 5.70942H54.7625V0.56609H56.7502V0.0485218H52.1769V0.56609H54.1646V5.70942Z" fill="#FF508A"/>
<path d="M58.3034 5.19185V3.08923H61.2284V2.57975H58.3034V0.56609H61.5839V0.0485218H57.7055V5.70942H61.7051V5.19185H58.3034Z" fill="#FF508A"/>
<path d="M67.6274 5.70942L66.2457 3.76854C67.0699 3.50167 67.5385 2.87897 67.5385 1.9894C67.5385 0.776352 66.6659 0.0485218 65.2276 0.0485218H63.1106V5.70942H63.7086V3.91411H65.2276C65.3892 3.91411 65.5347 3.90602 65.6801 3.88984L66.9729 5.70942H67.6274ZM65.2115 3.40463H63.7086V0.56609H65.2115C66.3427 0.56609 66.9406 1.08366 66.9406 1.9894C66.9406 2.87897 66.3427 3.40463 65.2115 3.40463Z" fill="#FF508A"/>
<path d="M71.4062 5.75794C72.2384 5.75794 72.9818 5.4749 73.4828 4.92498L73.103 4.54489C72.6424 5.02202 72.0768 5.2242 71.4304 5.2242C70.0649 5.2242 69.0387 4.22141 69.0387 2.87897C69.0387 1.53653 70.0649 0.533742 71.4304 0.533742C72.0768 0.533742 72.6424 0.735917 73.103 1.20496L73.4828 0.824873C72.9818 0.274958 72.2384 0 71.4142 0C69.7093 0 68.4488 1.22114 68.4488 2.87897C68.4488 4.5368 69.7093 5.75794 71.4062 5.75794Z" fill="#FF508A"/>
<path d="M74.7574 5.70942H78.5227V5.19185H75.3553V0.0485218H74.7574V5.70942Z" fill="#FF508A"/>
<path d="M83.7572 5.70942H84.3875L81.8018 0.0485218H81.212L78.6263 5.70942H79.2485L79.9272 4.19715H83.0785L83.7572 5.70942ZM80.1454 3.71193L81.5029 0.671221L82.8603 3.71193H80.1454Z" fill="#FF508A"/>
<path d="M86.8826 5.75794C88.3289 5.75794 88.9915 5.04629 88.9915 4.21332C88.9915 2.15114 85.509 3.08923 85.509 1.53653C85.509 0.970439 85.9695 0.509481 87.0038 0.509481C87.5048 0.509481 88.0704 0.663134 88.5552 0.978526L88.7572 0.501394C88.3047 0.186001 87.6421 0 87.0038 0C85.5655 0 84.9191 0.719742 84.9191 1.5527C84.9191 3.64723 88.4017 2.69297 88.4017 4.24567C88.4017 4.80368 87.9411 5.24846 86.8826 5.24846C86.1392 5.24846 85.4201 4.95733 85.0161 4.56107L84.7818 5.02202C85.2019 5.45872 86.0342 5.75794 86.8826 5.75794Z" fill="#FF508A"/>
<path d="M91.8538 5.75794C93.3001 5.75794 93.9627 5.04629 93.9627 4.21332C93.9627 2.15114 90.4802 3.08923 90.4802 1.53653C90.4802 0.970439 90.9407 0.509481 91.975 0.509481C92.4759 0.509481 93.0416 0.663134 93.5264 0.978526L93.7284 0.501394C93.2759 0.186001 92.6133 0 91.975 0C90.5367 0 89.8903 0.719742 89.8903 1.5527C89.8903 3.64723 93.3728 2.69297 93.3728 4.24567C93.3728 4.80368 92.9123 5.24846 91.8538 5.24846C91.1104 5.24846 90.3913 4.95733 89.9873 4.56107L89.7529 5.02202C90.1731 5.45872 91.0054 5.75794 91.8538 5.75794Z" fill="#FF508A"/>
<path d="M11.8278 29.4326H9.01171V20.4136C9.01836 19.9686 8.93381 19.5269 8.76329 19.1158C8.59277 18.7047 8.33987 18.3329 8.02023 18.0235C7.71098 17.7036 7.33955 17.4506 6.92883 17.2799C6.5181 17.1092 6.07678 17.0246 5.63211 17.0312C5.18744 17.0245 4.74613 17.1091 4.3354 17.2798C3.92466 17.4505 3.55323 17.7036 3.24402 18.0235C3.08451 18.1816 2.94115 18.3552 2.81607 18.5419V29.4326H0V14.776H2.81607V14.8664C3.68797 14.4233 4.65437 14.199 5.63211 14.2127C6.47978 14.1816 7.32378 14.3395 8.10303 14.6749C8.88229 15.0102 9.57735 15.5147 10.138 16.1518C10.693 15.5138 11.3838 15.0085 12.1596 14.673C12.9354 14.3374 13.7765 14.1801 14.6211 14.2127C15.4366 14.1997 16.2461 14.3541 16.9998 14.6663C17.7534 14.9785 18.4351 15.4419 19.0029 16.028C19.5885 16.5963 20.0516 17.2786 20.3635 18.0329C20.6755 18.7871 20.8297 19.5974 20.8167 20.4136V29.4326H17.9995V20.4136C18.0061 19.9686 17.9216 19.5269 17.7511 19.1158C17.5805 18.7047 17.3277 18.333 17.008 18.0235C16.6986 17.7034 16.3268 17.4502 15.9157 17.2795C15.5047 17.1089 15.063 17.0243 14.6181 17.0312C14.1734 17.0245 13.7321 17.1091 13.3213 17.2798C12.9106 17.4505 12.5392 17.7036 12.23 18.0235C12.0826 18.1703 11.947 18.3285 11.8244 18.4966L11.8278 29.4326Z" fill="white"/>
<path d="M35.1226 28.5982C33.8078 29.5329 32.2291 30.0227 30.6167 29.9964C29.5789 30.0129 28.5487 29.8163 27.5897 29.4189C26.6307 29.0214 25.7633 28.4315 25.041 27.6855C24.2956 26.9625 23.7061 26.0943 23.3089 25.1344C22.9117 24.1746 22.7153 23.1434 22.7317 22.1047C22.7153 21.0659 22.9117 20.0348 23.3089 19.0749C23.7061 18.1151 24.2956 17.2468 25.041 16.5238C25.7634 15.7779 26.6308 15.188 27.5898 14.7906C28.5487 14.3931 29.5789 14.1965 30.6167 14.2129C32.2291 14.1865 33.8079 14.6764 35.1226 15.6111V14.7765H37.9386V29.4331H35.1226V28.5982ZM35.1226 24.4495V19.7594C34.8776 19.3025 34.5663 18.8846 34.1987 18.5193C33.7348 18.0394 33.1776 17.6598 32.5615 17.4038C31.9454 17.1478 31.2834 17.021 30.6163 17.031C29.9494 17.021 29.2874 17.148 28.6714 17.4039C28.0553 17.6599 27.4982 18.0395 27.0344 18.5193C26.555 18.9835 26.1757 19.5411 25.92 20.1577C25.6642 20.7743 25.5374 21.4368 25.5473 22.1043C25.5374 22.7719 25.6641 23.4344 25.9199 24.0511C26.1756 24.6677 26.5549 25.2254 27.0344 25.6896C27.4982 26.1694 28.0554 26.549 28.6714 26.8049C29.2875 27.0609 29.9494 27.1878 30.6163 27.1779C31.2834 27.1879 31.9453 27.061 32.5615 26.8051C33.1776 26.5491 33.7348 26.1695 34.1987 25.6896C34.5664 25.3243 34.8777 24.9062 35.1226 24.4492V24.4495Z" fill="white"/>
<path d="M42.3773 26.3888C43.4779 26.8797 44.6646 27.148 45.8692 27.1781C46.7009 27.2223 47.5312 27.0677 48.2913 26.727C48.8545 26.4263 49.136 26.0428 49.136 25.5766C49.1389 25.383 49.1035 25.1908 49.032 25.0109C48.9605 24.831 48.8542 24.667 48.7193 24.5283C48.4139 24.2199 48.0271 24.0048 47.6042 23.9082L44.5626 23.0964C43.4869 22.8551 42.5116 22.2882 41.7689 21.4728C41.1067 20.7031 40.7534 19.7147 40.7775 18.6992C40.7734 18.0991 40.9027 17.5055 41.156 16.9615C41.4093 16.4174 41.7803 15.9366 42.2421 15.5537C43.306 14.6569 44.6605 14.1797 46.0511 14.212C48.0368 14.2035 49.9752 14.8187 51.5932 15.9709L49.7234 18.1128C48.6335 17.4322 47.3806 17.0578 46.0963 17.0289C45.458 17.0111 44.8294 17.1882 44.2941 17.5365C44.0915 17.6614 43.9234 17.8353 43.8053 18.0421C43.6872 18.2489 43.6229 18.482 43.6182 18.7202C43.614 18.9115 43.6534 19.1013 43.7334 19.2752C43.8133 19.449 43.9318 19.6024 44.0797 19.7237C44.4627 20.0249 44.9037 20.2437 45.3752 20.3662L48.5296 21.2232C49.5327 21.4611 50.4354 22.0095 51.1093 22.7903C51.7605 23.5864 52.1008 24.5921 52.0667 25.6204C52.0729 26.2233 51.9387 26.8195 51.6748 27.3615C51.4109 27.9036 51.0244 28.3767 50.5461 28.7434C49.5324 29.5776 47.9816 29.9947 45.8939 29.9947C44.0588 29.967 42.2578 29.4951 40.6445 28.6193L42.3773 26.3888Z" fill="white"/>
<path d="M54.6778 10.8306H57.4939V14.777H59.7468V17.5958H57.4939V29.4336H54.6778V10.8306Z" fill="white"/>
<path d="M73.7602 17.5945L71.7101 19.6464L64.8161 26.5461C65.5645 26.9703 66.4119 27.1881 67.2718 27.1774C68.0395 27.1757 68.7969 27.0004 69.4874 26.6646C70.1779 26.3288 70.7836 25.8411 71.2593 25.238L73.4671 26.9745C71.8148 28.9887 69.7495 29.9959 67.2714 29.9959C66.2336 30.0124 65.2033 29.8158 64.2443 29.4184C63.2852 29.0209 62.4177 28.431 61.6953 27.685C60.9499 26.9619 60.3604 26.0938 59.9633 25.1339C59.5661 24.174 59.3696 23.1429 59.386 22.1042C59.3696 21.0654 59.5661 20.0342 59.9633 19.0744C60.3605 18.1145 60.9499 17.2463 61.6953 16.5233C62.4178 15.7774 63.2853 15.1875 64.2443 14.79C65.2034 14.3926 66.2336 14.196 67.2714 14.2124C68.31 14.1962 69.3409 14.3919 70.3015 14.7873C71.262 15.1827 72.1321 15.7697 72.8588 16.5125C73.1838 16.8519 73.485 17.2134 73.7602 17.5945V17.5945ZM69.7271 17.6621C68.9788 17.2381 68.1314 17.0202 67.2714 17.0308C66.6044 17.0208 65.9424 17.1477 65.3263 17.4037C64.7102 17.6597 64.153 18.0393 63.6891 18.5191C63.2097 18.9834 62.8305 19.5409 62.5747 20.1575C62.319 20.7741 62.1921 21.4366 62.2021 22.1042C62.1912 22.9649 62.4089 23.813 62.8328 24.5619L69.7271 17.6621Z" fill="white"/>
<path d="M79.3023 19.3313V29.433H76.4863V14.754H79.3023V15.3404C80.4766 14.5834 81.8484 14.1911 83.245 14.2128V17.0312C82.6544 17.0206 82.0678 17.1312 81.5215 17.3562C80.9752 17.5811 80.4807 17.9157 80.0686 18.3394C79.7694 18.6337 79.5117 18.9674 79.3023 19.3313V19.3313Z" fill="white"/>
<path d="M96.0408 10.8306V29.4329H93.2247V10.8306H96.0408Z" fill="#FF508A"/>
<path d="M111.958 16.5233C113.248 17.8144 114.051 19.5135 114.231 21.3309C114.41 23.1484 113.954 24.9718 112.94 26.4904C111.927 28.0091 110.418 29.129 108.672 29.6594C106.926 30.1898 105.05 30.0978 103.364 29.3991C101.679 28.7004 100.287 27.4383 99.4265 25.8277C98.5662 24.2171 98.2905 22.3578 98.6463 20.5666C99.0022 18.7754 99.9676 17.1631 101.378 16.0044C102.789 14.8458 104.557 14.2124 106.381 14.2124C107.419 14.196 108.45 14.3926 109.409 14.7901C110.368 15.1875 111.235 15.7774 111.958 16.5233ZM106.381 17.0308C105.206 17.0288 104.066 17.4349 103.157 18.1799C102.247 18.9248 101.624 19.9624 101.393 21.1159C101.162 22.2694 101.338 23.4673 101.891 24.5054C102.444 25.5434 103.34 26.3573 104.426 26.8084C105.511 27.2594 106.719 27.3196 107.844 26.9788C108.969 26.6379 109.941 25.9171 110.595 24.9392C111.248 23.9613 111.542 22.7868 111.427 21.6161C111.312 20.4454 110.795 19.3508 109.963 18.5191C109.5 18.0394 108.943 17.6598 108.327 17.4038C107.711 17.1479 107.049 17.0209 106.382 17.0308H106.381Z" fill="#FF508A"/>
<path d="M117.579 14.7764L121.025 24.3597L124.405 14.7764H127.424L122.107 29.433H119.876L114.559 14.7764H117.579Z" fill="#FF508A"/>
<path d="M142 17.5947L139.95 19.6466L133.056 26.5464C133.804 26.9705 134.652 27.1884 135.512 27.1777C136.279 27.1759 137.037 27.0006 137.727 26.6648C138.418 26.3289 139.023 25.8413 139.499 25.2382L141.707 26.9747C140.055 28.989 137.989 29.9961 135.512 29.9961C134.216 29.9926 132.942 29.6698 131.801 29.0562C130.66 28.4426 129.688 27.5572 128.97 26.4782C128.252 25.3991 127.811 24.1597 127.685 22.8695C127.559 21.5793 127.753 20.2779 128.249 19.0804C128.746 17.883 129.529 16.8263 130.53 16.0038C131.531 15.1813 132.719 14.6183 133.99 14.3646C135.26 14.1108 136.573 14.1742 137.813 14.5489C139.053 14.9237 140.181 15.5984 141.099 16.5134C141.424 16.8525 141.725 17.2139 142 17.5947V17.5947ZM137.967 17.6624C137.004 17.1309 135.894 16.927 134.805 17.0815C133.716 17.2359 132.706 17.7404 131.929 18.5188C131.151 19.2972 130.647 20.3075 130.493 21.3974C130.338 22.4874 130.542 23.5981 131.073 24.5621L137.967 17.6624Z" fill="#FF508A"/>
</svg>
